<?xml version="1.0" standalone="no"?>
<!DOCTYPE svg PUBLIC "-//W3C//DTD SVG 20010904//EN"
 "http://www.w3.org/TR/2001/REC-SVG-20010904/DTD/svg10.dtd">
<svg version="1.0" xmlns="http://www.w3.org/2000/svg"
 width="1024.000000pt" height="1024.000000pt" viewBox="0 0 1024.000000 1024.000000"
 preserveAspectRatio="xMidYMid meet">
<metadata>
Created by potrace 1.14, written by Peter Selinger 2001-2017
</metadata>
<g transform="translate(0.000000,1024.000000) scale(0.100000,-0.100000)"
fill="#000000" stroke="none">
<path d="M4254 8246 c-8 -21 -1 -49 14 -54 6 -2 12 4 12 14 0 31 76 -52 152
-166 289 -436 485 -1151 598 -2180 18 -158 26 -535 12 -526 -25 15 -88 145
-136 280 -12 35 -36 -1 -36 -55 0 -40 -3 -47 -16 -42 -8 3 -28 -4 -44 -16 -28
-20 -41 -21 -232 -21 -212 0 -658 -17 -693 -26 -19 -5 -19 -4 -3 9 39 31 249
139 348 178 58 23 148 52 200 66 82 21 110 24 210 20 63 -3 129 -9 145 -13 27
-6 29 -5 17 9 -19 23 -138 47 -234 47 -189 0 -452 -100 -752 -285 -55 -33
-101 -66 -104 -73 -7 -23 45 -32 125 -22 134 16 439 30 670 30 l222 0 -76
-107 c-87 -125 -238 -375 -255 -424 -9 -25 -9 -34 0 -37 7 -2 10 -7 8 -11 -3
-4 9 -7 26 -6 27 0 44 15 126 110 52 61 139 160 193 222 66 75 97 117 93 127
-3 9 -11 16 -17 16 -6 0 -68 -58 -138 -128 -71 -71 -123 -119 -117 -108 30 57
123 199 173 266 50 67 60 76 96 81 l40 5 38 -81 c21 -45 44 -86 51 -90 9 -6
11 -4 5 5 -4 7 6 2 23 -10 17 -13 29 -27 27 -31 -3 -4 3 -5 14 -2 10 3 22 0
25 -6 12 -19 40 -12 59 15 12 16 21 50 24 101 6 69 7 74 20 57 26 -35 102
-192 143 -296 56 -143 57 -144 88 -143 30 0 39 23 41 105 2 97 -67 348 -134
485 -18 38 -32 72 -29 76 5 8 137 44 237 65 102 22 290 44 368 44 74 0 103 16
79 45 -15 18 -134 56 -277 89 -279 64 -429 75 -520 39 l-52 -21 -5 27 c-3 14
-8 49 -11 76 -12 95 -37 261 -61 400 -149 872 -392 1524 -675 1817 -65 67 -94
82 -105 54z m1192 -2386 c163 -28 344 -72 338 -82 -3 -4 -23 -8 -46 -8 -88 0
-492 -71 -512 -90 -5 -5 -25 2 -44 15 -19 13 -39 22 -44 19 -11 -7 -16 10 -21
73 -4 51 -4 51 32 67 20 8 43 17 51 20 34 10 135 5 246 -14z m-272 -233 c4 4
9 -3 13 -15 3 -12 9 -22 14 -22 23 0 122 -248 154 -387 25 -109 17 -103 -55
42 -44 89 -85 158 -114 188 -43 48 -44 49 -46 125 -3 96 -2 101 14 80 7 -10
16 -15 20 -11z m-200 -294 c14 -24 24 -43 21 -43 -6 0 -55 77 -55 86 0 10 3 6
34 -43z"/>
<path d="M4080 6290 c-211 -28 -421 -132 -640 -317 -422 -358 -721 -893 -821
-1469 -29 -169 -32 -451 -6 -593 32 -175 87 -343 158 -484 45 -87 109 -188
118 -182 4 2 34 -27 65 -65 174 -208 458 -407 753 -525 58 -24 99 -45 92 -47
-7 -2 16 -12 51 -21 450 -112 834 -106 1314 23 340 91 828 307 1126 498 94 60
123 78 185 117 200 125 508 401 668 598 182 225 295 449 349 692 8 39 13 129
13 255 -1 181 -3 203 -29 305 -31 118 -63 190 -133 299 -145 224 -335 403
-570 535 -190 107 -514 233 -718 281 -194 45 -432 66 -423 38 3 -9 38 -15 99
-20 257 -18 544 -105 843 -255 107 -54 286 -160 286 -169 0 -3 -5 -2 -12 2 -7
4 -8 3 -4 -5 4 -6 11 -9 16 -6 5 3 21 -7 37 -21 15 -15 19 -20 8 -13 -18 13
-19 12 -7 -3 8 -9 19 -15 26 -12 13 5 96 -78 96 -96 0 -6 4 -9 9 -6 4 3 17 -4
27 -17 19 -21 19 -21 -1 -7 -20 14 -20 14 -1 -7 10 -13 24 -20 30 -16 6 3 8 3
4 -1 -4 -5 19 -43 51 -85 161 -212 213 -354 226 -606 17 -347 -107 -674 -380
-994 -110 -131 -302 -311 -428 -402 -237 -172 -655 -410 -914 -522 -537 -232
-1085 -328 -1508 -267 -419 61 -801 258 -1050 540 -145 164 -261 424 -306 690
-18 105 -15 390 5 515 83 506 335 1000 677 1331 209 201 428 321 663 363 86
16 241 13 316 -5 36 -9 74 -17 85 -20 11 -2 21 -8 23 -14 2 -6 8 -8 13 -4 5 3
34 -20 65 -51 31 -31 58 -54 61 -51 17 16 -77 147 -139 193 -115 86 -295 126
-468 103z m-290 -174 c0 -2 -7 -7 -16 -10 -8 -3 -12 -2 -9 4 6 10 25 14 25 6z
m-60 -31 c0 -2 -10 -9 -22 -15 -22 -11 -22 -10 -4 4 21 17 26 19 26 11z m-50
-30 c0 -2 -10 -9 -22 -15 -22 -11 -22 -10 -4 4 21 17 26 19 26 11z m30 -43
c-87 -60 -188 -141 -270 -216 l-95 -88 103 101 c88 86 262 222 281 220 3 0 -5
-8 -19 -17z m-260 -95 c0 -2 -19 -21 -42 -42 l-43 -40 40 43 c36 39 45 47 45
39z m-150 -154 c-35 -38 -81 -92 -102 -120 -50 -65 -61 -70 -16 -7 33 48 166
194 175 194 3 0 -23 -30 -57 -67z m42 -17 c-109 -117 -256 -324 -338 -476 -21
-38 -40 -68 -42 -65 -11 11 148 274 236 390 43 57 190 215 200 215 2 0 -23
-29 -56 -64z m-12 -70 c0 -2 -8 -10 -17 -17 -16 -13 -17 -12 -4 4 13 16 21 21
21 13z m3991 -379 c11 -22 19 -40 17 -42 -2 -2 -18 24 -36 58 -18 34 -25 53
-16 42 8 -11 25 -37 35 -58z m39 -92 c0 -5 -5 -3 -10 5 -5 8 -10 20 -10 25 0
6 5 3 10 -5 5 -8 10 -19 10 -25z m27 -57 c-3 -8 -6 -5 -6 6 -1 11 2 17 5 13 3
-3 4 -12 1 -19z m-4466 -45 c-12 -20 -14 -14 -5 12 4 9 9 14 11 11 3 -2 0 -13
-6 -23z m4496 -85 c-3 -8 -6 -5 -6 6 -1 11 2 17 5 13 3 -3 4 -12 1 -19z
m-4690 -500 c-3 -8 -6 -5 -6 6 -1 11 2 17 5 13 3 -3 4 -12 1 -19z m4585 -334
c-79 -157 -230 -351 -393 -509 l-93 -90 95 100 c52 55 125 138 163 185 74 92
204 283 232 343 10 20 19 35 21 33 3 -2 -9 -30 -25 -62z m-4635 -176 c-3 -7
-5 -2 -5 12 0 14 2 19 5 13 2 -7 2 -19 0 -25z m4416 -80 c-26 -34 -104 -119
-172 -188 -95 -96 -102 -102 -30 -25 52 55 127 140 168 188 40 48 75 87 78 87
2 0 -17 -28 -44 -62z m-4406 0 c-3 -8 -6 -5 -6 6 -1 11 2 17 5 13 3 -3 4 -12
1 -19z m10 -50 c-3 -7 -5 -2 -5 12 0 14 2 19 5 13 2 -7 2 -19 0 -25z m10 -50
c-3 -7 -5 -2 -5 12 0 14 2 19 5 13 2 -7 2 -19 0 -25z m4356 -61 c-15 -19 -30
-32 -32 -30 -5 3 49 63 57 63 2 0 -9 -15 -25 -33z m-4336 -9 c-3 -8 -6 -5 -6
6 -1 11 2 17 5 13 3 -3 4 -12 1 -19z m22 -68 c0 -9 -4 -8 -9 5 -5 11 -9 27 -9
35 0 9 4 8 9 -5 5 -11 9 -27 9 -35z m4226 -21 c-130 -133 -415 -361 -527 -422
-39 -21 -48 -28 127 97 134 95 211 159 335 276 100 94 132 119 65 49z m-4085
-304 c23 -38 49 -80 58 -92 8 -13 12 -23 9 -23 -13 0 -120 173 -156 251 -57
125 -60 149 -3 34 27 -55 68 -131 92 -170z m3890 242 c0 -2 -15 -16 -32 -33
l-33 -29 29 33 c28 30 36 37 36 29z m-3800 -307 c12 -16 19 -30 16 -30 -2 0
-14 14 -26 30 -12 17 -19 30 -16 30 2 0 14 -13 26 -30z m41 -57 c13 -16 12
-17 -3 -4 -17 13 -22 21 -14 21 2 0 10 -8 17 -17z m3374 -29 c-26 -20 -55 -36
-55 -30 0 5 63 46 70 46 3 -1 -4 -8 -15 -16z m-80 -50 c-26 -20 -55 -36 -55
-30 0 5 63 46 70 46 3 -1 -4 -8 -15 -16z m-65 -39 c0 -2 -10 -9 -22 -15 -22
-11 -22 -10 -4 4 21 17 26 19 26 11z m-120 -10 c0 -2 -22 -16 -50 -30 -27 -14
-50 -23 -50 -20 0 2 21 16 48 29 53 28 52 28 52 21z m70 -20 c0 -2 -10 -9 -22
-15 -22 -11 -22 -10 -4 4 21 17 26 19 26 11z m-220 -60 c0 -6 -217 -115 -227
-114 -6 0 214 116 225 118 1 1 2 -1 2 -4z m-2679 -92 c13 -16 12 -17 -3 -4
-10 7 -18 15 -18 17 0 8 8 3 21 -13z m2399 -48 c-14 -8 -29 -14 -35 -14 -5 0
1 6 15 14 14 8 30 14 35 14 6 0 -1 -6 -15 -14z m-653 -291 c-3 -3 -12 -4 -19
-1 -8 3 -5 6 6 6 11 1 17 -2 13 -5z m-90 -20 c-3 -3 -12 -4 -19 -1 -8 3 -5 6
6 6 11 1 17 -2 13 -5z m-409 -11 c-16 -2 -40 -2 -55 0 -16 2 -3 4 27 4 30 0
43 -2 28 -4z m229 -19 c-3 -3 -12 -4 -19 -1 -8 3 -5 6 6 6 11 1 17 -2 13 -5z"/>
<path d="M741 6104 c0 -11 3 -14 6 -6 3 7 2 16 -1 19 -3 4 -6 -2 -5 -13z"/>
<path d="M9491 6104 c0 -11 3 -14 6 -6 3 7 2 16 -1 19 -3 4 -6 -2 -5 -13z"/>
<path d="M731 6064 c0 -11 3 -14 6 -6 3 7 2 16 -1 19 -3 4 -6 -2 -5 -13z"/>
<path d="M9501 6064 c0 -11 3 -14 6 -6 3 7 2 16 -1 19 -3 4 -6 -2 -5 -13z"/>
<path d="M721 6014 c0 -11 3 -14 6 -6 3 7 2 16 -1 19 -3 4 -6 -2 -5 -13z"/>
<path d="M9511 6014 c0 -11 3 -14 6 -6 3 7 2 16 -1 19 -3 4 -6 -2 -5 -13z"/>
<path d="M712 5970 c0 -14 2 -19 5 -12 2 6 2 18 0 25 -3 6 -5 1 -5 -13z"/>
<path d="M9522 5970 c0 -14 2 -19 5 -12 2 6 2 18 0 25 -3 6 -5 1 -5 -13z"/>
<path d="M702 5920 c0 -14 2 -19 5 -12 2 6 2 18 0 25 -3 6 -5 1 -5 -13z"/>
<path d="M9532 5920 c0 -14 2 -19 5 -12 2 6 2 18 0 25 -3 6 -5 1 -5 -13z"/>
<path d="M692 5870 c0 -14 2 -19 5 -12 2 6 2 18 0 25 -3 6 -5 1 -5 -13z"/>
<path d="M9542 5870 c0 -14 2 -19 5 -12 2 6 2 18 0 25 -3 6 -5 1 -5 -13z"/>
<path d="M682 5810 c0 -14 2 -19 5 -12 2 6 2 18 0 25 -3 6 -5 1 -5 -13z"/>
<path d="M9552 5810 c0 -14 2 -19 5 -12 2 6 2 18 0 25 -3 6 -5 1 -5 -13z"/>
<path d="M9562 5755 c0 -16 2 -22 5 -12 2 9 2 23 0 30 -3 6 -5 -1 -5 -18z"/>
<path d="M672 5750 c0 -14 2 -19 5 -12 2 6 2 18 0 25 -3 6 -5 1 -5 -13z"/>
<path d="M6930 5717 c0 -2 15 -16 33 -33 l32 -29 -29 33 c-28 30 -36 37 -36
29z"/>
<path d="M651 5618 c-98 -813 -6 -1557 281 -2273 191 -476 438 -880 776 -1272
691 -800 1637 -1334 2662 -1502 295 -48 398 -56 750 -56 352 0 455 8 750 56
666 109 1311 377 1874 779 351 251 728 622 996 980 604 810 923 1822 885 2810
-13 330 -21 350 -16 40 2 -173 -1 -359 -8 -450 -101 -1342 -787 -2554 -1886
-3334 -760 -540 -1658 -826 -2595 -826 -1373 0 -2655 619 -3517 1697 -559 700
-896 1561 -964 2463 -15 201 -6 660 16 839 9 73 14 135 12 137 -3 3 -10 -37
-16 -88z"/>
<path d="M9572 5695 c-1 -11 5 -65 13 -120 l14 -100 -5 80 c-6 80 -21 178 -22
140z"/>
<path d="M4980 5242 c0 -12 19 -26 26 -19 2 2 -2 10 -11 17 -9 8 -15 8 -15 2z"/>
<path d="M6203 3890 c-98 -220 -558 -563 -935 -695 -109 -38 -148 -58 -137
-70 12 -12 290 87 392 139 266 136 485 300 612 459 81 102 111 160 98 190 -9
20 -11 19 -30 -23z"/>
<path d="M2890 3236 c0 -18 105 -138 199 -228 111 -107 243 -203 371 -270 96
-50 248 -113 256 -106 2 3 -24 15 -58 28 -96 34 -252 116 -348 180 -78 53
-254 202 -290 247 -14 17 -104 127 -122 148 -4 5 -8 5 -8 1z"/>
<path d="M3740 2620 c8 -5 22 -10 30 -10 13 0 13 1 0 10 -8 5 -22 10 -30 10
-13 0 -13 -1 0 -10z"/>
</g>
</svg>
