<?xml version="1.0" standalone="no"?>
<!DOCTYPE svg PUBLIC "-//W3C//DTD SVG 20010904//EN"
 "http://www.w3.org/TR/2001/REC-SVG-20010904/DTD/svg10.dtd">
<svg version="1.0" xmlns="http://www.w3.org/2000/svg"
 width="1156.000000pt" height="1156.000000pt" viewBox="0 0 1156.000000 1156.000000"
 preserveAspectRatio="xMidYMid meet">
<metadata>
Created by potrace 1.14, written by Peter Selinger 2001-2017
</metadata>
<g transform="translate(0.000000,1156.000000) scale(0.100000,-0.100000)"
fill="#000000" stroke="none">
<path d="M4306 10522 c-28 -32 11 -107 46 -86 5 3 7 12 4 20 -9 24 26 0 71
-49 179 -194 368 -541 531 -972 221 -585 415 -1484 512 -2366 37 -338 6 -717
-64 -761 -13 -9 -37 35 -66 119 -12 34 -28 67 -36 74 -23 19 -45 -10 -51 -67
-7 -84 -11 -94 -37 -94 -13 0 -39 -13 -59 -29 l-36 -28 -538 -6 c-480 -6 -636
-12 -808 -32 l-50 -6 45 29 c255 162 623 317 880 372 86 19 124 21 253 18 109
-3 165 -9 200 -22 26 -9 52 -14 57 -11 17 10 0 32 -38 49 -75 33 -175 48 -322
49 -126 1 -159 -2 -250 -25 -290 -73 -548 -187 -886 -392 -161 -97 -211 -135
-187 -143 7 -2 10 -10 7 -17 -5 -14 61 -30 88 -22 7 2 44 7 82 11 l69 6 -30
-28 c-73 -69 -69 -127 12 -169 31 -16 145 -19 145 -4 0 6 10 10 22 10 23 0 90
21 98 31 3 3 17 9 32 12 15 4 33 14 42 22 8 8 20 15 26 15 17 0 40 26 40 44 0
9 5 16 10 16 6 0 10 9 10 20 0 11 -4 20 -10 20 -5 0 -10 8 -10 18 0 17 13 20
128 25 70 4 277 7 460 7 l334 0 -42 -52 c-23 -29 -61 -74 -84 -99 -24 -25 -48
-60 -54 -78 -6 -17 -49 -93 -95 -168 -197 -323 -254 -432 -241 -461 4 -9 6
-23 5 -31 -2 -10 5 -12 28 -8 25 5 31 3 31 -10 0 -35 24 -79 48 -91 31 -14
102 -16 102 -2 0 6 7 10 15 10 27 0 126 95 185 180 13 19 30 41 37 48 7 7 13
17 13 22 0 5 6 15 13 22 12 13 33 50 79 138 25 49 70 100 105 118 39 21 160 8
183 -19 3 -3 16 -9 30 -13 14 -4 41 -12 60 -18 19 -6 80 -14 135 -19 117 -9
164 -18 183 -33 43 -33 112 -109 112 -124 0 -11 63 -84 97 -112 28 -24 100
-18 127 11 40 44 49 82 42 182 -11 146 -34 269 -87 452 -31 109 -45 173 -39
179 6 6 10 18 10 28 0 10 5 18 10 18 6 0 10 9 10 20 0 11 5 20 10 20 6 0 10 7
10 15 0 9 11 27 25 40 13 14 31 25 40 25 8 0 15 3 15 8 0 22 91 32 285 32 190
0 209 2 247 21 57 29 68 42 68 79 0 40 -46 85 -102 101 -22 5 -38 12 -36 14 2
3 72 10 154 16 82 6 155 15 162 21 40 33 -7 77 -120 113 -294 93 -701 169
-908 169 -124 0 -142 -3 -252 -49 -14 -5 -18 1 -22 37 -178 1314 -409 2207
-746 2893 -146 295 -280 496 -430 638 -84 81 -113 93 -144 59z m1869 -3666
c145 -27 460 -102 483 -115 8 -4 -28 -11 -80 -14 -134 -9 -357 -42 -553 -83
-249 -52 -228 -50 -258 -20 -14 14 -28 35 -32 46 -3 11 -10 20 -14 20 -4 0
-18 23 -31 50 -13 28 -27 50 -32 50 -4 0 -8 9 -8 20 0 22 54 54 117 70 62 15
257 4 408 -24z m55 -296 c0 -5 -8 -10 -18 -10 -10 0 -24 -9 -32 -20 -8 -11
-22 -20 -32 -20 -10 0 -18 -4 -18 -9 0 -9 -94 -24 -143 -22 -15 0 -34 4 -43 9
-15 8 40 26 211 66 76 18 75 18 75 6z"/>
<path d="M4110 7529 c-296 -21 -598 -142 -883 -351 -85 -63 -246 -204 -378
-330 -379 -363 -730 -935 -913 -1488 -67 -204 -129 -406 -148 -485 -9 -40 -12
-55 -41 -195 -43 -212 -57 -359 -57 -580 0 -264 32 -493 101 -730 6 -19 13
-47 16 -63 3 -15 9 -30 14 -33 5 -3 9 -16 9 -29 0 -13 5 -27 10 -30 6 -3 10
-13 10 -21 0 -8 10 -36 21 -62 41 -92 142 -297 148 -302 4 -3 18 -26 31 -52
14 -27 28 -48 31 -48 4 0 12 -13 19 -30 7 -16 16 -30 20 -30 4 0 13 -14 20
-30 7 -17 16 -30 21 -30 4 0 11 -9 14 -20 4 -11 16 -31 28 -43 12 -13 32 -37
45 -55 58 -82 254 -277 352 -352 18 -14 38 -30 44 -35 6 -6 27 -22 46 -35 19
-13 37 -27 40 -30 7 -9 271 -185 290 -193 8 -4 38 -20 65 -36 49 -30 216 -113
265 -133 14 -6 33 -14 42 -19 10 -5 24 -9 32 -9 8 0 16 -4 18 -8 5 -12 247
-91 343 -112 22 -5 60 -14 85 -20 136 -32 269 -47 555 -60 307 -14 544 -2 805
40 97 15 170 29 215 39 22 5 65 14 95 21 76 17 119 27 160 39 19 5 64 17 100
26 36 9 73 20 82 26 10 5 25 9 33 9 8 0 23 4 33 9 9 5 49 18 87 30 39 12 79
26 90 31 11 4 36 13 55 20 42 15 79 29 102 41 10 5 22 9 28 9 6 0 32 10 58 21
26 12 61 27 77 34 133 56 166 72 385 179 182 90 302 153 393 204 62 36 105 61
145 83 20 12 49 30 64 40 14 11 29 19 32 19 4 0 39 21 79 48 40 26 84 54 100
61 15 8 27 18 27 23 0 4 5 8 10 8 12 0 155 95 184 122 11 10 26 18 33 18 7 0
13 4 13 8 0 4 13 16 30 25 16 10 35 23 42 30 7 7 29 24 48 37 19 13 42 31 50
40 8 8 35 31 60 50 123 95 463 435 581 581 20 24 50 59 68 78 17 18 31 36 31
40 0 3 18 26 40 49 22 24 40 47 40 50 0 4 10 18 23 32 65 73 200 291 273 444
142 298 212 663 185 961 -14 159 -23 211 -68 395 -80 333 -126 448 -257 649
-190 290 -413 519 -687 703 -316 212 -843 437 -1272 542 -265 65 -647 107
-675 74 -21 -26 6 -35 129 -41 446 -23 1006 -216 1524 -525 178 -107 375 -265
503 -404 48 -52 52 -62 17 -46 -14 6 -25 15 -25 20 0 4 -13 8 -30 8 -16 0 -30
5 -30 10 0 6 -13 10 -30 10 -23 0 -30 -4 -30 -20 0 -11 4 -20 8 -20 5 0 17
-18 28 -40 10 -22 22 -40 27 -40 4 0 7 -7 7 -15 0 -8 5 -15 10 -15 6 0 10 -7
10 -15 0 -8 4 -15 8 -15 4 0 15 -12 24 -27 9 -16 28 -41 42 -58 14 -16 26 -34
26 -39 0 -5 8 -16 18 -25 31 -27 138 -193 186 -287 140 -278 191 -603 151
-956 -29 -243 -76 -411 -162 -567 -174 -316 -484 -687 -794 -947 -345 -289
-1009 -689 -1534 -923 -497 -221 -930 -352 -1420 -430 -518 -82 -1045 -40
-1490 117 -203 72 -297 115 -492 223 -187 105 -480 350 -616 517 -94 115 -230
358 -267 477 -7 22 -16 49 -21 60 -4 11 -10 34 -14 50 -3 17 -10 50 -16 75
-39 190 -52 358 -44 605 3 110 10 229 16 265 35 226 33 220 80 403 20 79 51
182 60 199 5 10 9 27 9 37 0 11 5 23 10 26 6 3 10 16 10 29 0 12 4 26 8 32 4
5 14 27 21 49 7 22 21 59 32 82 10 24 19 46 19 51 0 5 12 33 26 63 14 30 37
79 51 109 48 107 140 279 200 379 53 88 181 280 200 299 8 8 25 30 40 50 33
46 295 308 343 344 19 14 46 36 60 48 14 12 37 29 53 38 15 9 27 20 27 24 0 4
6 8 13 8 7 0 23 9 35 20 12 11 24 20 27 20 3 0 32 17 63 38 31 21 98 57 147
81 95 46 109 52 165 71 19 7 44 15 55 20 29 11 83 26 140 39 28 7 66 16 85 21
89 23 212 33 326 25 167 -10 194 -10 239 3 65 19 70 26 69 84 0 30 -5 53 -12
56 -7 2 -12 9 -12 15 0 6 -10 22 -22 35 l-23 24 55 -21 c72 -28 159 -88 182
-128 21 -35 46 -49 61 -34 16 16 -35 107 -105 192 -104 125 -183 178 -348 233
-72 24 -132 37 -190 41 -47 3 -96 7 -110 9 -14 1 -68 -1 -120 -5z"/>
<path d="M7323 3888 c-5 -7 -18 -33 -29 -58 -50 -118 -288 -376 -479 -521
-321 -244 -643 -425 -950 -534 -88 -32 -175 -66 -194 -78 -32 -19 -33 -21 -15
-34 10 -7 25 -10 34 -6 8 4 80 28 160 55 199 66 285 101 425 173 245 126 508
300 694 458 152 129 336 355 377 463 23 60 6 120 -23 82z"/>
</g>
</svg>
